<svg width="731" height="102" viewBox="0 0 731 102" fill="none" xmlns="http://www.w3.org/2000/svg">
<g clip-path="url(#clip0_885_243)">
<path d="M160.9 98C153.1 98 146.85 96.1 142.15 92.3C137.45 88.5 135.1 81.75 135.1 72.05V39.65H122.35V23.6H135.1L137.35 3.65H154.3V23.6H174.4V39.65H154.3V72.2C154.3 75.8 155.05 78.3 156.55 79.7C158.15 81 160.85 81.65 164.65 81.65H173.95V98H160.9ZM190.885 98V-10H210.085V35C212.585 30.9 215.935 27.7 220.135 25.4C224.435 23 229.335 21.8 234.835 21.8C244.035 21.8 251.135 24.7 256.135 30.5C261.235 36.3 263.785 44.8 263.785 56V98H244.735V57.8C244.735 51.4 243.435 46.5 240.835 43.1C238.335 39.7 234.335 38 228.835 38C223.435 38 218.935 39.9 215.335 43.7C211.835 47.5 210.085 52.8 210.085 59.6V98H190.885ZM317.845 99.8C310.645 99.8 304.145 98.15 298.345 94.85C292.645 91.55 288.095 87 284.695 81.2C281.395 75.3 279.745 68.5 279.745 60.8C279.745 53.1 281.445 46.35 284.845 40.55C288.245 34.65 292.795 30.05 298.495 26.75C304.295 23.45 310.795 21.8 317.995 21.8C325.095 21.8 331.495 23.45 337.195 26.75C342.995 30.05 347.545 34.65 350.845 40.55C354.245 46.35 355.945 53.1 355.945 60.8C355.945 68.5 354.245 75.3 350.845 81.2C347.545 87 342.995 91.55 337.195 94.85C331.395 98.15 324.945 99.8 317.845 99.8ZM317.845 83.15C322.845 83.15 327.195 81.3 330.895 77.6C334.595 73.8 336.445 68.2 336.445 60.8C336.445 53.4 334.595 47.85 330.895 44.15C327.195 40.35 322.895 38.45 317.995 38.45C312.895 38.45 308.495 40.35 304.795 44.15C301.195 47.85 299.395 53.4 299.395 60.8C299.395 68.2 301.195 73.8 304.795 77.6C308.495 81.3 312.845 83.15 317.845 83.15ZM373.111 98V23.6H390.061L391.561 36.2C393.861 31.8 397.161 28.3 401.461 25.7C405.861 23.1 411.011 21.8 416.911 21.8C426.111 21.8 433.261 24.7 438.361 30.5C443.461 36.3 446.011 44.8 446.011 56V98H426.811V57.8C426.811 51.4 425.511 46.5 422.911 43.1C420.311 39.7 416.261 38 410.761 38C405.361 38 400.911 39.9 397.411 43.7C394.011 47.5 392.311 52.8 392.311 59.6V98H373.111ZM464.971 98V-10H477.571V98H464.971ZM522.973 99.8C516.773 99.8 511.623 98.75 507.523 96.65C503.423 94.55 500.373 91.75 498.373 88.25C496.373 84.75 495.373 80.95 495.373 76.85C495.373 69.25 498.273 63.4 504.073 59.3C509.873 55.2 517.773 53.15 527.773 53.15H547.873V52.25C547.873 45.75 546.173 40.85 542.773 37.55C539.373 34.15 534.823 32.45 529.123 32.45C524.223 32.45 519.973 33.7 516.373 36.2C512.873 38.6 510.673 42.15 509.773 46.85H496.873C497.373 41.45 499.173 36.9 502.273 33.2C505.473 29.5 509.423 26.7 514.123 24.8C518.823 22.8 523.823 21.8 529.123 21.8C539.523 21.8 547.323 24.6 552.523 30.2C557.823 35.7 560.473 43.05 560.473 52.25V98H549.223L548.473 84.65C546.373 88.85 543.273 92.45 539.173 95.45C535.173 98.35 529.773 99.8 522.973 99.8ZM524.923 89.15C529.723 89.15 533.823 87.9 537.223 85.4C540.723 82.9 543.373 79.65 545.173 75.65C546.973 71.65 547.873 67.45 547.873 63.05V62.9H528.823C521.423 62.9 516.173 64.2 513.073 66.8C510.073 69.3 508.573 72.45 508.573 76.25C508.573 80.15 509.973 83.3 512.773 85.7C515.673 88 519.723 89.15 524.923 89.15ZM619.125 99.8C613.025 99.8 607.575 98.55 602.775 96.05C598.075 93.55 594.475 90.05 591.975 85.55L590.775 98H579.375V-10H591.975V35.9C594.375 32.3 597.775 29.05 602.175 26.15C606.675 23.25 612.375 21.8 619.275 21.8C626.675 21.8 633.125 23.5 638.625 26.9C644.125 30.3 648.375 34.95 651.375 40.85C654.475 46.75 656.025 53.45 656.025 60.95C656.025 68.45 654.475 75.15 651.375 81.05C648.375 86.85 644.075 91.45 638.475 94.85C632.975 98.15 626.525 99.8 619.125 99.8ZM617.775 88.85C622.775 88.85 627.175 87.7 630.975 85.4C634.775 83 637.775 79.7 639.975 75.5C642.175 71.3 643.275 66.4 643.275 60.8C643.275 55.2 642.175 50.3 639.975 46.1C637.775 41.9 634.775 38.65 630.975 36.35C627.175 33.95 622.775 32.75 617.775 32.75C612.775 32.75 608.375 33.95 604.575 36.35C600.775 38.65 597.775 41.9 595.575 46.1C593.375 50.3 592.275 55.2 592.275 60.8C592.275 66.4 593.375 71.3 595.575 75.5C597.775 79.7 600.775 83 604.575 85.4C608.375 87.7 612.775 88.85 617.775 88.85ZM702.065 99.8C693.165 99.8 685.765 97.55 679.865 93.05C673.965 88.55 670.515 82.45 669.515 74.75H682.415C683.215 78.65 685.265 82.05 688.565 84.95C691.965 87.75 696.515 89.15 702.215 89.15C707.515 89.15 711.415 88.05 713.915 85.85C716.415 83.55 717.665 80.85 717.665 77.75C717.665 73.25 716.015 70.25 712.715 68.75C709.515 67.25 704.965 65.9 699.065 64.7C695.065 63.9 691.065 62.75 687.065 61.25C683.065 59.75 679.715 57.65 677.015 54.95C674.315 52.15 672.965 48.5 672.965 44C672.965 37.5 675.365 32.2 680.165 28.1C685.065 23.9 691.665 21.8 699.965 21.8C707.865 21.8 714.315 23.8 719.315 27.8C724.415 31.7 727.365 37.3 728.165 44.6H715.715C715.215 40.8 713.565 37.85 710.765 35.75C708.065 33.55 704.415 32.45 699.815 32.45C695.315 32.45 691.815 33.4 689.315 35.3C686.915 37.2 685.715 39.7 685.715 42.8C685.715 45.8 687.265 48.15 690.365 49.85C693.565 51.55 697.865 53 703.265 54.2C707.865 55.2 712.215 56.45 716.315 57.95C720.515 59.35 723.915 61.5 726.515 64.4C729.215 67.2 730.565 71.3 730.565 76.7C730.665 83.4 728.115 88.95 722.915 93.35C717.815 97.65 710.865 99.8 702.065 99.8Z" fill="white"/>
<g clip-path="url(#clip1_885_243)">
<path d="M-1.5 12.75C-1.5 9.36849 -0.1567 6.12548 2.23439 3.73439C4.62548 1.3433 7.86849 0 11.25 0L62.25 0C65.6315 0 68.8745 1.3433 71.2656 3.73439C73.6567 6.12548 75 9.36849 75 12.75V25.5H87.75C91.1315 25.5 94.3745 26.8433 96.7656 29.2344C99.1567 31.6255 100.5 34.8685 100.5 38.25V89.25C100.5 92.6315 99.1567 95.8745 96.7656 98.2656C94.3745 100.657 91.1315 102 87.75 102H36.75C33.3685 102 30.1255 100.657 27.7344 98.2656C25.3433 95.8745 24 92.6315 24 89.25V76.5H11.25C7.86849 76.5 4.62548 75.1567 2.23439 72.7656C-0.1567 70.3745 -1.5 67.1315 -1.5 63.75V12.75ZM75 25.5H30.375C28.6842 25.5 27.0627 26.1717 25.8672 27.3672C24.6717 28.5627 24 30.1842 24 31.875V76.5H68.625C70.3158 76.5 71.9373 75.8283 73.1328 74.6328C74.3283 73.4373 75 71.8158 75 70.125V25.5Z" fill="white"/>
</g>
</g>
<defs>
<clipPath id="clip0_885_243">
<rect width="731" height="102" fill="white"/>
</clipPath>
<clipPath id="clip1_885_243">
<rect width="102" height="102" fill="white" transform="translate(-1.5)"/>
</clipPath>
</defs>
</svg>
