<svg width="101" height="102" viewBox="0 0 101 102" fill="none" xmlns="http://www.w3.org/2000/svg">
<g clip-path="url(#clip0_822_66)">
<path d="M-1.5 12.75C-1.5 9.36849 -0.1567 6.12548 2.23439 3.73439C4.62548 1.3433 7.86849 0 11.25 0L62.25 0C65.6315 0 68.8745 1.3433 71.2656 3.73439C73.6567 6.12548 75 9.36849 75 12.75V25.5H87.75C91.1315 25.5 94.3745 26.8433 96.7656 29.2344C99.1567 31.6255 100.5 34.8685 100.5 38.25V89.25C100.5 92.6315 99.1567 95.8745 96.7656 98.2656C94.3745 100.657 91.1315 102 87.75 102H36.75C33.3685 102 30.1255 100.657 27.7344 98.2656C25.3433 95.8745 24 92.6315 24 89.25V76.5H11.25C7.86849 76.5 4.62548 75.1567 2.23439 72.7656C-0.1567 70.3745 -1.5 67.1315 -1.5 63.75V12.75ZM75 25.5H30.375C28.6842 25.5 27.0627 26.1717 25.8672 27.3672C24.6717 28.5627 24 30.1842 24 31.875V76.5H68.625C70.3158 76.5 71.9373 75.8284 73.1328 74.6328C74.3283 73.4373 75 71.8158 75 70.125V25.5Z" fill="#1A1614"/>
</g>
<defs>
<clipPath id="clip0_822_66">
<rect width="102" height="102" fill="white" transform="translate(-1.5)"/>
</clipPath>
</defs>
</svg>
